<svg id="visual" viewBox="0 0 900 300" width="900" height="300" xmlns="http://www.w3.org/2000/svg" xmlns:xlink="http://www.w3.org/1999/xlink" version="1.1"><rect x="0" y="0" width="900" height="300" fill="#4f7a9a"></rect><path d="M0 103L21.5 103.2C43 103.3 86 103.7 128.8 107.2C171.7 110.7 214.3 117.3 257.2 114.8C300 112.3 343 100.7 385.8 99.8C428.7 99 471.3 109 514.2 114.7C557 120.3 600 121.7 642.8 116.7C685.7 111.7 728.3 100.3 771.2 98.3C814 96.3 857 103.7 878.5 107.3L900 111L900 0L878.5 0C857 0 814 0 771.2 0C728.3 0 685.7 0 642.8 0C600 0 557 0 514.2 0C471.3 0 428.7 0 385.8 0C343 0 300 0 257.2 0C214.3 0 171.7 0 128.8 0C86 0 43 0 21.5 0L0 0Z" fill="#fcaf3c"></path><path d="M0 65L21.5 70.2C43 75.3 86 85.7 128.8 88C171.7 90.3 214.3 84.7 257.2 80.7C300 76.7 343 74.3 385.8 71.3C428.7 68.3 471.3 64.7 514.2 64.2C557 63.7 600 66.3 642.8 70.5C685.7 74.7 728.3 80.3 771.2 81.8C814 83.3 857 80.7 878.5 79.3L900 78L900 0L878.5 0C857 0 814 0 771.2 0C728.3 0 685.7 0 642.8 0C600 0 557 0 514.2 0C471.3 0 428.7 0 385.8 0C343 0 300 0 257.2 0C214.3 0 171.7 0 128.8 0C86 0 43 0 21.5 0L0 0Z" fill="#fba230"></path><path d="M0 78L21.5 73.3C43 68.7 86 59.3 128.8 57.5C171.7 55.7 214.3 61.3 257.2 60.3C300 59.3 343 51.7 385.8 51.3C428.7 51 471.3 58 514.2 61C557 64 600 63 642.8 64.3C685.7 65.7 728.3 69.3 771.2 68.7C814 68 857 63 878.5 60.5L900 58L900 0L878.5 0C857 0 814 0 771.2 0C728.3 0 685.7 0 642.8 0C600 0 557 0 514.2 0C471.3 0 428.7 0 385.8 0C343 0 300 0 257.2 0C214.3 0 171.7 0 128.8 0C86 0 43 0 21.5 0L0 0Z" fill="#fa9424"></path><path d="M0 32L21.5 36C43 40 86 48 128.8 49.7C171.7 51.3 214.3 46.7 257.2 41.8C300 37 343 32 385.8 31C428.7 30 471.3 33 514.2 35.3C557 37.7 600 39.3 642.8 38.5C685.7 37.7 728.3 34.3 771.2 32.7C814 31 857 31 878.5 31L900 31L900 0L878.5 0C857 0 814 0 771.2 0C728.3 0 685.7 0 642.8 0C600 0 557 0 514.2 0C471.3 0 428.7 0 385.8 0C343 0 300 0 257.2 0C214.3 0 171.7 0 128.8 0C86 0 43 0 21.5 0L0 0Z" fill="#f98619"></path><path d="M0 13L21.5 12.8C43 12.7 86 12.3 128.8 12.5C171.7 12.7 214.3 13.3 257.2 14.3C300 15.3 343 16.7 385.8 16.7C428.7 16.7 471.3 15.3 514.2 15.8C557 16.3 600 18.7 642.8 21.5C685.7 24.3 728.3 27.7 771.2 26.7C814 25.7 857 20.3 878.5 17.7L900 15L900 0L878.5 0C857 0 814 0 771.2 0C728.3 0 685.7 0 642.8 0C600 0 557 0 514.2 0C471.3 0 428.7 0 385.8 0C343 0 300 0 257.2 0C214.3 0 171.7 0 128.8 0C86 0 43 0 21.5 0L0 0Z" fill="#f7770f"></path></svg>